<mxfile host="app.diagrams.net" modified="2022-08-10T22:14:19.112Z" agent="5.0 (Windows NT 10.0; Win64; x64) AppleWebKit/537.36 (KHTML, like Gecko) Chrome/104.0.5112.81 Safari/537.36 Edg/104.0.1293.47" etag="yR7RV3jrRxA1SVQQIZ6h" version="20.2.3" type="github">
  <diagram id="bYn8DOUHizQ1WnU2NE-p" name="PÃ¡gina-1">
    <mxGraphModel dx="785" dy="544" grid="1" gridSize="10" guides="1" tooltips="1" connect="0" arrows="1" fold="1" page="0" pageScale="1" pageWidth="1654" pageHeight="2336" background="#000000" math="0" shadow="0">
      <root>
        <mxCell id="0" />
        <mxCell id="1" parent="0" />
      </root>
    </mxGraphModel>
  </diagram>
</mxfile>
